<?xml version="1.0" encoding="UTF-8"?>
<svg id="Layer_1" data-name="Layer 1" xmlns="http://www.w3.org/2000/svg" viewBox="0 0 3222.64 2296.47">
  <defs>
    <style>
      .cls-1 {
        fill: #8a1aef;
        fill-rule: evenodd;
      }
    </style>
  </defs>
  <g>
    <g>
      <path d="M1269.7,973.91v-.35c0-34.87,26.06-63.75,62.33-63.75,22.36,0,35.75,7.93,48.07,19.55l-9.51,10.21c-10.39-9.86-22.01-16.9-38.74-16.9-27.29,0-47.72,22.19-47.72,50.54v.35c0,28.53,20.6,50.89,47.72,50.89,16.91,0,28-6.52,39.8-17.79l9.16,8.98c-12.86,13.03-26.94,21.66-49.31,21.66-35.57,0-61.81-28-61.81-63.39Z"/>
      <path d="M1450.87,911.92h13.91v110.41h69.38v12.86h-83.29v-123.26Z"/>
      <path d="M1593.13,973.91v-.35c0-33.99,25.53-63.75,63.04-63.75s62.69,29.41,62.69,63.39v.35c0,33.99-25.53,63.75-63.04,63.75s-62.69-29.41-62.69-63.39ZM1704.42,973.91v-.35c0-28-20.43-50.89-48.6-50.89s-48.25,22.54-48.25,50.54v.35c0,28,20.43,50.89,48.6,50.89s48.25-22.54,48.25-50.54Z"/>
      <path d="M1785.04,1017.23l8.63-10.21c12.86,11.62,25.18,17.43,42.27,17.43s27.47-8.81,27.47-20.95v-.35c0-11.45-6.16-17.96-32.05-23.42-28.35-6.16-41.38-15.32-41.38-35.57v-.35c0-19.37,17.08-33.63,40.5-33.63,17.96,0,30.81,5.11,43.32,15.15l-8.1,10.74c-11.45-9.33-22.89-13.38-35.57-13.38-16.02,0-26.24,8.8-26.24,19.9v.35c0,11.62,6.34,18.14,33.46,23.95,27.47,5.99,40.15,16.02,40.15,34.87v.35c0,21.13-17.61,34.87-42.08,34.87-19.55,0-35.57-6.52-50.36-19.72Z"/>
      <path d="M1951.6,911.92h89.11v12.68h-75.2v42.08h67.27v12.68h-67.27v43.14h76.07v12.68h-89.98v-123.26Z"/>
      <path d="M2204.43,911.92h15.15l35.22,102.66,33.81-103.01h11.45l33.81,103.01,35.22-102.66h14.61l-44.02,124.15h-11.8l-33.81-100.02-33.99,100.02h-11.62l-44.02-124.15Z"/>
      <path d="M2455.85,911.92h13.91v123.26h-13.91v-123.26Z"/>
      <path d="M2584.2,924.78h-41.39v-12.86h96.85v12.86h-41.39v110.41h-14.08v-110.41Z"/>
      <path d="M2711.49,911.92h13.91v54.76h71.14v-54.76h13.91v123.26h-13.91v-55.47h-71.14v55.47h-13.91v-123.26Z"/>
    </g>
    <g>
      <path d="M1270.11,1141.2h70.48l57.41,93.16,57.41-93.16h70.47v240.65h-66.35v-138.2l-61.54,94.2h-1.37l-61.2-93.51v137.51h-65.32v-240.65Z"/>
      <path d="M1741.13,1139.48h64.29l102.45,242.37h-71.51l-17.54-42.97h-92.82l-17.19,42.97h-70.13l102.45-242.37ZM1799.58,1286.96l-26.82-68.41-27.16,68.41h53.98Z"/>
      <path d="M2020.67,1141.2h113.79c36.79,0,62.22,9.62,78.38,26.13,14.09,13.75,21.31,32.32,21.31,56.04v.69c0,36.79-19.6,61.19-49.51,73.91l57.41,83.88h-77.01l-48.47-72.88h-29.22v72.88h-66.69v-240.65ZM2131.36,1256.71c22.69,0,35.75-11,35.75-28.53v-.69c0-18.91-13.75-28.53-36.1-28.53h-43.66v57.76h44Z"/>
      <path d="M2358.64,1141.2h67.04v240.65h-67.04v-240.65Z"/>
      <path d="M2550.84,1262.21v-.69c0-69.1,55.69-125.14,129.95-125.14s129.26,55.35,129.26,124.45v.69c0,69.1-55.69,125.14-129.95,125.14s-129.26-55.35-129.26-124.45ZM2741.98,1262.21v-.69c0-34.72-25.1-64.97-61.88-64.97s-60.85,29.56-60.85,64.29v.69c0,34.72,25.1,64.97,61.54,64.97s61.19-29.57,61.19-64.29Z"/>
    </g>
  </g>
  <polygon points="958.04 1084.62 958.04 1011.66 907.49 961.1 907.49 1038.46 743.64 888.86 412.18 1191.7 493.64 1191.7 546.07 1142.7 546.07 1312.49 868.55 1312.49 807.01 1261.93 596.63 1261.93 596.63 1095.45 744.04 957.68 907.49 1106.92 907.49 1357.06 614.79 1357.06 553.25 1407.61 958.04 1407.61 958.04 1153.08 998.18 1189.73 1071.77 1189.73 958.04 1084.62"/>
  <path class="cls-1" d="M741.97,1047.38c10.33,0,18.71,8.37,18.71,18.7s-8.37,18.71-18.71,18.71-18.7-8.38-18.7-18.71,8.37-18.7,18.7-18.7M741.97,1019.39c35.91,0,65.03,29.11,65.03,65.02,0,30.49-20.98,56.06-49.29,63.1v31.6h-8v17.29h8.26v10.32h-8.26v14.45h8.26v14.45l-13.42,13.42h-5.16v-78.44h-3.61v70.19l-10.06-10.06v-83.33c-28.04-7.22-48.77-32.68-48.77-62.98,0-35.91,29.11-65.02,65.02-65.02Z"/>
  <rect x="1163.54" y="847.98" width="5.92" height="600.51"/>
</svg>